<?xml version="1.0" standalone="no"?>
<!DOCTYPE svg PUBLIC "-//W3C//DTD SVG 20010904//EN"
 "http://www.w3.org/TR/2001/REC-SVG-20010904/DTD/svg10.dtd">
<svg version="1.0" xmlns="http://www.w3.org/2000/svg"
 width="700.000000pt" height="700.000000pt" viewBox="0 0 700.000000 700.000000"
 preserveAspectRatio="xMidYMid meet">
<metadata>
Created by potrace 1.14, written by Peter Selinger 2001-2017
</metadata>
<g transform="translate(0.000000,700.000000) scale(0.100000,-0.100000)"
fill="#000000" stroke="none">
<path d="M300 6982 c-7 -3 -10 -913 -10 -2861 l0 -2857 -145 1 -145 0 0 -632
0 -633 3500 0 3500 0 0 633 0 632 -152 0 -153 0 -2 2835 c-1 1559 -2 2846 -2
2860 l-1 25 -489 0 c-269 0 -491 -2 -494 -5 -2 -3 -45 -61 -96 -130 -50 -69
-97 -132 -104 -140 -7 -8 -457 -609 -1001 -1335 -543 -726 -994 -1326 -1001
-1334 -11 -11 -58 47 -277 340 -549 737 -898 1205 -917 1229 -22 29 -454 607
-790 1058 -128 171 -236 313 -240 313 -16 3 -972 4 -981 1z m1231 -2030 c48
-64 187 -250 309 -412 203 -268 592 -784 984 -1305 83 -110 156 -207 163 -215
7 -8 78 -103 158 -210 80 -107 155 -206 166 -220 11 -14 45 -59 75 -100 l55
-75 56 0 57 0 743 990 c409 545 751 1000 761 1012 9 12 123 163 252 336 129
173 237 313 240 310 2 -2 4 -856 5 -1898 0 -1676 -2 -1894 -15 -1897 -8 -2
-935 -4 -2060 -3 l-2045 0 -1 1903 c0 1046 2 1902 5 1901 4 0 45 -53 92 -117z"/>
</g>
</svg>
