<?xml version="1.0" encoding="UTF-8"?>
<svg width="240px" height="86px" viewBox="0 0 240 86" version="1.1" xmlns="http://www.w3.org/2000/svg" xmlns:xlink="http://www.w3.org/1999/xlink">
    <!-- Generator: Sketch 43.1 (39012) - http://www.bohemiancoding.com/sketch -->
    <title>Artboard</title>
    <desc>Created with Sketch.</desc>
    <defs></defs>
    <g id="Style-Guide" stroke="none" stroke-width="1" fill="none" fill-rule="evenodd">
        <g id="Artboard">
            <rect id="Rectangle-67" fill="#E7790E" x="-1" y="71" width="241" height="15"></rect>
            <path d="M31.85,3.5 L19.7,19.7 L7.55,3.5 L3.5,3.5 L3.5,35 L8,35 L8,11.15 L19.43,26.36 L19.97,26.36 L31.4,11.15 L31.4,35 L35.9,35 L35.9,3.5 L31.85,3.5 Z M61.82,12.95 L66.05,12.95 L66.05,35 L61.82,35 L61.82,32.075 C59.93,34.37 57.095,35.45 54.035,35.45 C47.375,35.45 42.65,30.23 42.65,23.975 C42.65,17.72 47.375,12.5 54.035,12.5 C57.095,12.5 59.93,13.58 61.82,15.875 L61.82,12.95 Z M61.82,28.115 L61.82,19.835 C59.93,17.54 57.635,16.46 54.755,16.46 C49.76,16.46 46.97,19.655 46.97,23.975 C46.97,28.295 49.76,31.49 54.755,31.49 C57.635,31.49 59.93,30.41 61.82,28.115 Z M87.65,16.82 L87.65,12.95 L79.37,12.95 L79.37,6.2 L75.14,6.2 L75.14,12.95 L71,12.95 L71,16.82 L75.14,16.82 L75.14,28.7 C75.14,33.29 78.56,35.45 82.61,35.45 C84.41,35.45 85.895,35.09 87.38,34.37 L87.38,30.635 C86.075,31.265 84.635,31.58 83.195,31.58 C80.945,31.58 79.37,30.68 79.37,28.43 L79.37,16.82 L87.65,16.82 Z M107.45,16.82 L107.45,12.95 L99.17,12.95 L99.17,6.2 L94.94,6.2 L94.94,12.95 L90.8,12.95 L90.8,16.82 L94.94,16.82 L94.94,28.7 C94.94,33.29 98.36,35.45 102.41,35.45 C104.21,35.45 105.695,35.09 107.18,34.37 L107.18,30.635 C105.875,31.265 104.435,31.58 102.995,31.58 C100.745,31.58 99.17,30.68 99.17,28.43 L99.17,16.82 L107.45,16.82 Z M19.25,57.9 L19.25,62.04 L28.79,62.04 L28.79,67.35 C26.225,69.96 22.625,71.13 18.8,71.13 C10.7,71.13 6.2,65.82 6.2,59.295 C6.2,52.68 10.79,47.37 18.485,47.37 C23.57,47.37 27.08,49.71 28.655,53.22 L32.48,51.015 C30.095,46.2 24.92,43.05 18.35,43.05 C8.135,43.05 1.7,50.385 1.7,59.385 C1.7,68.115 8,75.45 18.89,75.45 C24.515,75.45 29.195,73.47 32.975,69.6 L32.975,57.9 L19.25,57.9 Z M43.955,56.775 L43.955,52.95 L39.725,52.95 L39.725,75 L43.955,75 L43.955,61.32 C45.755,57.9 49.67,56.64 52.73,56.73 L52.73,52.5 C48.95,52.41 46.115,53.715 43.955,56.775 Z M59.3,65.865 C60.02,69.375 62.72,71.58 67.22,71.58 C69.965,71.58 72.305,70.68 74.375,68.925 L76.22,72.345 C73.745,74.28 71,75.45 67.355,75.45 C59.705,75.45 54.98,70.545 54.98,63.885 C54.98,57.72 59.3,52.5 66.365,52.5 C73.43,52.5 78.29,57.675 77.39,65.865 L59.3,65.865 Z M59.255,62.265 L73.295,62.265 C72.8,58.35 70.1,56.37 66.365,56.37 C62.36,56.37 59.84,58.755 59.255,62.265 Z M85.85,65.865 C86.57,69.375 89.27,71.58 93.77,71.58 C96.515,71.58 98.855,70.68 100.925,68.925 L102.77,72.345 C100.295,74.28 97.55,75.45 93.905,75.45 C86.255,75.45 81.53,70.545 81.53,63.885 C81.53,57.72 85.85,52.5 92.915,52.5 C99.98,52.5 104.84,57.675 103.94,65.865 L85.85,65.865 Z M85.805,62.265 L99.845,62.265 C99.35,58.35 96.65,56.37 92.915,56.37 C88.91,56.37 86.39,58.755 85.805,62.265 Z M121.715,52.5 C118.34,52.5 115.91,53.715 113.885,56.1 L113.885,52.95 L109.655,52.95 L109.655,75 L113.885,75 L113.885,60.51 C116,57.765 118.16,56.46 120.815,56.46 C124.055,56.46 126.125,58.395 126.125,61.41 L126.125,75 L130.355,75 L130.355,61.41 C130.355,55.92 127.16,52.5 121.715,52.5 Z M146.825,46.47 C148.04,46.47 149.48,46.785 150.785,47.415 L150.785,43.68 C149.3,42.96 147.815,42.6 146.24,42.6 C141.965,42.6 138.545,45.21 138.545,50.25 L138.545,52.95 L134.405,52.95 L134.405,56.82 L138.545,56.82 L138.545,75 L142.775,75 L142.775,56.82 L150.785,56.82 L150.785,52.95 L142.775,52.95 L142.775,50.52 C142.775,47.82 144.35,46.47 146.825,46.47 Z M156.95,48.9 C158.66,48.9 159.965,47.595 159.965,45.975 C159.965,44.355 158.66,43.05 156.95,43.05 C155.24,43.05 153.935,44.355 153.935,45.975 C153.935,47.595 155.24,48.9 156.95,48.9 Z M159.065,52.95 L154.835,52.95 L154.835,75 L159.065,75 L159.065,52.95 Z M169.235,65.865 C169.955,69.375 172.655,71.58 177.155,71.58 C179.9,71.58 182.24,70.68 184.31,68.925 L186.155,72.345 C183.68,74.28 180.935,75.45 177.29,75.45 C169.64,75.45 164.915,70.545 164.915,63.885 C164.915,57.72 169.235,52.5 176.3,52.5 C183.365,52.5 188.225,57.675 187.325,65.865 L169.235,65.865 Z M169.19,62.265 L183.23,62.265 C182.735,58.35 180.035,56.37 176.3,56.37 C172.295,56.37 169.775,58.755 169.19,62.265 Z M193.04,75 L197.27,75 L197.27,42.6 L193.04,42.6 L193.04,75 Z M222.29,43.5 L226.52,43.5 L226.52,75 L222.29,75 L222.29,72.075 C220.4,74.37 217.565,75.45 214.505,75.45 C207.845,75.45 203.12,70.23 203.12,63.975 C203.12,57.72 207.845,52.5 214.505,52.5 C217.565,52.5 220.4,53.58 222.29,55.875 L222.29,43.5 Z M222.29,68.115 L222.29,59.835 C220.4,57.54 218.105,56.46 215.225,56.46 C210.23,56.46 207.44,59.655 207.44,63.975 C207.44,68.295 210.23,71.49 215.225,71.49 C218.105,71.49 220.4,70.41 222.29,68.115 Z M236.06,75.45 C237.905,75.45 239.3,74.055 239.3,72.3 C239.3,70.545 237.905,69.15 236.06,69.15 C234.215,69.15 232.82,70.545 232.82,72.3 C232.82,74.055 234.215,75.45 236.06,75.45 Z" id="Matt" fill="#1C1C1C"></path>
        </g>
    </g>
</svg>